<?xml version="1.0"?>
<svg xmlns="http://www.w3.org/2000/svg" id="_x31__px" enable-background="new 0 0 24 24" height="512px" viewBox="0 0 24 24" width="512px"><g><path d="m12 12.5h-5.5c-.276 0-.5-.224-.5-.5s.224-.5.5-.5h5v-5c0-.276.224-.5.5-.5s.5.224.5.5v5.5c0 .276-.224.5-.5.5z" data-original="#000000" class="active-path" data-old_color="#000000" fill="#277DF4"/><path d="m12 22c-5.514 0-10-4.486-10-10s4.486-10 10-10 10 4.486 10 10-4.486 10-10 10zm0-19c-4.962 0-9 4.038-9 9s4.038 9 9 9 9-4.038 9-9-4.038-9-9-9z" data-original="#000000" class="active-path" data-old_color="#000000" fill="#277DF4"/><path d="m2.979 9.52c-.076 0-.152-.017-.225-.053-1.698-.856-2.754-2.568-2.754-4.467 0-2.757 2.243-5 5-5 1.899 0 3.611 1.056 4.467 2.755.124.247.025.547-.222.672-.248.123-.548.024-.672-.222-.684-1.36-2.053-2.205-3.573-2.205-2.206 0-4 1.794-4 4 0 1.52.845 2.889 2.205 3.573.247.125.346.425.222.672-.088.174-.264.275-.448.275z" data-original="#000000" class="active-path" data-old_color="#000000" fill="#277DF4"/><path d="m21.021 9.52c-.183 0-.359-.101-.447-.275-.124-.247-.025-.547.222-.672 1.359-.684 2.204-2.053 2.204-3.573 0-2.206-1.794-4-4-4-1.52 0-2.889.845-3.573 2.205-.125.246-.427.345-.672.222-.247-.125-.346-.425-.222-.672.856-1.699 2.568-2.755 4.467-2.755 2.757 0 5 2.243 5 5 0 1.899-1.056 3.611-2.755 4.467-.072.036-.149.053-.224.053z" data-original="#000000" class="active-path" data-old_color="#000000" fill="#277DF4"/><path d="m19.5 24c-.163 0-.323-.08-.419-.227l-2.31-3.54c-.151-.231-.085-.541.146-.692.231-.15.541-.086.692.146l2.31 3.54c.151.231.085.541-.146.692-.084.055-.179.081-.273.081z" data-original="#000000" class="active-path" data-old_color="#000000" fill="#277DF4"/><path d="m4.5 24c-.094 0-.188-.026-.273-.081-.231-.151-.296-.461-.146-.692l2.31-3.54c.152-.231.461-.295.692-.146.231.151.296.461.146.692l-2.31 3.54c-.096.147-.256.227-.419.227z" data-original="#000000" class="active-path" data-old_color="#000000" fill="#277DF4"/></g> </svg>
